# xmcd
#
# Track frame offsets: 
#        150
#        11086
#        26063
#        38391
#        50232
#        62204
#        74357
#        85915
#        98866
#        107674
#        120414
#        133723
#        147550
#        157806
#        167008
#        177664
#        190982
#        202389
#        211947
#        220202
#        228277
#        237933
#        246547
#        256542
#        268092
#        281997
#        296995
#        312177
#        322301
#        331439
#
# Disc length: 4564 seconds
#
# Revision: 0
# Processed by: cddbd v1.5.2PL0 Copyright (c) Steve Scherf et al.
# Submitted via: ExactAudioCopy v0.99pb4
#
DISCID=dc11d21e
DTITLE=Various Artist - Stickbuddy Jamboree
DYEAR=2011
DGENRE=Country
TTITLE0=Emmitt Hawkins - Tom Cattin'
TTITLE1=Emmitt Hawkins - I Don't Care What You Do Anymore
TTITLE2=Country Cowboys - Mississippi Boogie
TTITLE3=Country Cowboys - I'm The Lonesomest Guy In Town
TTITLE4=Henry Ford - No More Money, No More Honey
TTITLE5=Henry Ford - Is There Peace In Korea
TTITLE6=Henry Ford - How Long Would It Take
TTITLE7=Henry Ford - Your Cheatin' Heart
TTITLE8=Billy Byrd - No Price Tag (On Your Kisses)
TTITLE9=Billy Byrd - Brave Carol Ann Moses (Of Vicksburg)
TTITLE10=Marcellas 'Mac' Quinn and His Dubs - Don't Flirt With Me In Pub
TTITLE10=lic (I'm a Married Man)
TTITLE11=Marcellas 'Mac' Quinn and His Dubs - My Good Gal Left Me
TTITLE12=Kay and Shirley - Hee Ho
TTITLE13=Kay and Shirley - Negotiating Love
TTITLE14=Bud Scarborough - Bud's Breakdown (Instrumental)
TTITLE15=Bud Scarborough - A Fool
TTITLE16=Bud Scarborough - Have You Ever Been Sorry
TTITLE17=Bud Scarborough - Down Yonder (Instrumental)
TTITLE18=Unidentified - Sittin' Down On It
TTITLE19=Unidentified - When It Came To True Love
TTITLE20=Unidentified - Hey Hey Ho Ho
TTITLE21=Warner Mack - I Wanna Play House With You
TTITLE22=Al Bailey - I Wish I Had Someone To Love
TTITLE23=Magnolia Quartet - Get Thee Behind Me Satan
TTITLE24=The Kellum Family - Only Believe (And You'll Receive A Crown)
TTITLE25=Unidentified - Mr. And Miseries Used To Be
TTITLE26=Celeste Shirley - Two Lonely People
TTITLE27=Rick Richardson - Accommodatin' Sue
TTITLE28=Rick Richardson - Black Horse and Blonde Headed Woman
TTITLE29=Jimmy Swan - Don't Worry 'bout The Mule (Load The Wagon)
EXTD=
EXTT0=
EXTT1=
EXTT2=
EXTT3=
EXTT4=
EXTT5=
EXTT6=
EXTT7=
EXTT8=
EXTT9=
EXTT10=
EXTT11=
EXTT12=
EXTT13=
EXTT14=
EXTT15=
EXTT16=
EXTT17=
EXTT18=
EXTT19=
EXTT20=
EXTT21=
EXTT22=
EXTT23=
EXTT24=
EXTT25=
EXTT26=
EXTT27=
EXTT28=
EXTT29=
PLAYORDER=
